<svg xmlns="http://www.w3.org/2000/svg" xml:space="preserve" style="enable-background:new 0 0 18 20" viewBox="0 0 18 20"><g style="opacity:.8"><path d="M2.5 18.1c.1.7.6 1.2 1.3 1.2h10.5c.7 0 1.2-.5 1.3-1.2l1.2-12.3H1.3l1.2 12.3zM16.7 1.9h-5.1v-.6C11.6.6 11 0 10.3 0H7.7C7 0 6.4.6 6.4 1.3v.6H1.3C.6 1.9 0 2.5 0 3.2s.6 1.3 1.3 1.3h15.4c.7 0 1.3-.6 1.3-1.3s-.6-1.3-1.3-1.3z" style="fill:#fff"/></g><path d="M2.5 18.1c.1.7.6 1.2 1.3 1.2h10.5c.7 0 1.2-.5 1.3-1.2l1.2-12.3H1.3l1.2 12.3zM16.7 1.9h-5.1v-.6C11.6.6 11 0 10.3 0H7.7C7 0 6.4.6 6.4 1.3v.6H1.3C.6 1.9 0 2.5 0 3.2s.6 1.3 1.3 1.3h15.4c.7 0 1.3-.6 1.3-1.3s-.6-1.3-1.3-1.3z" style="opacity:.3"/></svg>